Patient4_TMGait_0pt7_02_left_35_GRF.mot
version=1
nRows=78
nColumns=19
inDegrees=no
endheader
time	F1x	F1y	F1z	M1x	M1y	M1z	F2x	F2y	F2z	M2x	M2y	M2z	EC1x	EC1y	EC1z	EC2x	EC2y	EC2z
40.03	-15.8625	7.3658	10.5901	-3.8197	-11.9976	7.0509	-0.98306	722.9557	-74.1378	264.4003	92.2429	798.2197	-0.0592	0.0182	-0.0073	-0.0462	0.0165	0.9585
40.0416	-10.5839	5.8231	7.3082	-2.9264	-8.2053	5.7469	-6.0938	727.6206	-74.4908	267.5985	91.4606	798.3748	-0.0592	0.0182	-0.0073	-0.0462	0.0165	0.9585
40.0531	-6.157	4.6277	4.4922	-2.1904	-4.9782	4.7546	-10.1604	733.6221	-74.7693	271.1316	90.4915	799.4217	-0.0592	0.0182	-0.0073	-0.0462	0.0165	0.9585
40.0647	-2.7973	3.8256	2.32	-1.6547	-2.5052	4.1102	-13.0172	740.9456	-74.8833	274.9049	89.3502	801.5783	-0.0592	0.0182	-0.0073	-0.0462	0.0165	0.9585
40.0763	-0.49516	3.3625	0.80067	-1.3069	-0.79079	3.7833	-14.7061	749.2429	-74.8763	278.7662	88.1264	804.6119	-0.0592	0.0182	-0.0073	-0.0462	0.0165	0.9585
40.0879	0.92015	3.1794	-0.14732	-1.118	0.26709	3.7053	-15.4484	757.8613	-74.756	282.491	86.8534	807.9523	-0.0592	0.0182	-0.0073	-0.0462	0.0165	0.9585
40.0994	1.6428	3.1756	-0.65229	-1.0402	0.81214	3.7844	-15.4311	765.909	-74.5377	285.7905	85.5329	810.7169	-0.0592	0.0182	-0.0073	-0.0462	0.0165	0.9585
40.111	1.8886	3.2234	-0.83768	-1.0168	0.98652	3.8768	-14.8506	772.5139	-74.221	288.3841	84.1411	812.0404	-0.0592	0.0182	-0.0073	-0.0462	0.0165	0.9585
40.1226	1.8089	3.2015	-0.81508	-0.99385	0.91007	3.8515	-13.8006	776.8597	-73.7502	290.0195	82.5798	811.0833	-0.0592	0.0182	-0.0073	-0.0462	0.0165	0.9585
40.1341	1.5489	2.9666	-0.66947	-0.91291	0.68474	3.5439	-12.3438	778.3974	-73.1188	290.5302	80.7958	807.2996	-0.0592	0.0182	-0.0073	-0.0462	0.0165	0.9585
40.1457	1.1949	2.409	-0.46779	-0.72436	0.38796	2.8349	-10.4426	776.8525	-72.277	289.8463	78.696	800.383	-0.0592	0.0182	-0.0073	-0.0462	0.0165	0.9585
40.1573	0.82111	1.395	-0.25716	-0.37706	0.083699	1.5781	-8.1035	772.2421	-71.2555	287.9953	76.285	790.3548	-0.0592	0.0182	-0.0073	-0.0462	0.0165	0.9585
40.1689	0.47724	-0.1626	-0.072001	0.16349	-0.18275	-0.30887	-5.246	764.929	-70.058	285.1237	73.537	777.5582	-0.0592	0.0182	-0.0073	-0.0462	0.0165	0.9585
40.1804	0.19589	-2.2988	0.057494	0.90909	-0.36796	-2.8584	-1.8747	755.5486	-68.7604	281.475	70.522	762.6243	-0.0592	0.0182	-0.0073	-0.0462	0.0165	0.9585
40.192	0.018974	-4.9088	0.088121	1.8233	-0.41343	-5.9335	2.0482	745.0444	-67.4213	277.4047	67.2881	746.4791	-0.0592	0.0182	-0.0073	-0.0462	0.0165	0.9585
40.2036	0.0050329	-7.7086	-0.021791	2.8009	-0.24534	-9.2072	6.5075	734.5512	-66.1556	273.3342	63.9531	730.2549	-0.0592	0.0182	-0.0073	-0.0462	0.0165	0.9585
40.2151	0.23828	-10.1166	-0.32083	3.6284	0.21913	-12.0136	11.4585	725.153	-65.0812	269.6688	60.637	715.0059	-0.0592	0.0182	-0.0073	-0.0462	0.0165	0.9585
40.2267	0.8173	-11.1609	-0.86407	3.9532	1.079	-13.233	16.8446	717.7524	-64.3253	266.7357	57.4749	701.641	-0.0592	0.0182	-0.0073	-0.0462	0.0165	0.9585
40.2383	1.8458	-9.381	-1.7001	3.2524	2.4274	-11.1668	22.5377	712.7394	-63.9949	264.6811	54.5966	690.5718	-0.0592	0.0182	-0.0073	-0.0462	0.0165	0.9585
40.2499	3.4026	-2.8219	-2.8466	0.82831	4.322	-3.5492	28.3438	709.9545	-64.1194	263.444	52.0911	681.7133	-0.0592	0.0182	-0.0073	-0.0462	0.0165	0.9585
40.2614	5.5367	10.8796	-4.2768	-4.1579	6.7496	12.3691	34.0038	708.5672	-64.655	262.7221	50.0101	674.3707	-0.0592	0.0182	-0.0073	-0.0462	0.0165	0.9585
40.273	8.1728	34.2691	-5.8506	-12.5976	9.5269	39.5494	39.193	707.1476	-65.4258	261.9965	48.3065	667.3397	-0.0592	0.0182	-0.0073	-0.0462	0.0165	0.9585
40.2846	11.0605	69.5157	-7.3093	-25.237	12.2498	80.5304	43.5517	703.8008	-66.1897	260.5747	46.8894	659.0104	-0.0592	0.0182	-0.0073	-0.0462	0.0165	0.9585
40.2961	13.6595	117.551	-8.1557	-42.3654	14.1399	136.4193	46.7086	696.3395	-66.6103	257.6588	45.5906	647.5176	-0.0592	0.0182	-0.0073	-0.0462	0.0165	0.9585
40.3077	15.0356	176.803	-7.6662	-63.3653	14.0014	205.398	48.349	682.629	-66.3441	252.4679	44.2274	631.0484	-0.0592	0.0182	-0.0073	-0.0462	0.0165	0.9585
40.3193	13.6952	242.0222	-4.858	-86.2998	10.1814	281.371	48.2687	661.0015	-65.0498	244.3963	42.5866	608.1853	-0.0592	0.0182	-0.0073	-0.0462	0.0165	0.9585
40.3309	8.7581	304.9035	1.1357	-108.1856	1.4382	354.6184	46.4566	630.6984	-62.509	233.1747	40.5084	578.2673	-0.0592	0.0182	-0.0073	-0.0462	0.0165	0.9585
40.3424	1.4031	358.4833	10.0322	-126.6295	-11.3926	416.7343	43.1704	592.149	-58.6851	218.9702	37.9032	541.6027	-0.0592	0.0182	-0.0073	-0.0462	0.0165	0.9585
40.354	-7.0292	402.0896	20.2892	-141.4599	-26.0855	466.6429	38.8839	546.9153	-53.7846	202.3465	34.8131	499.4654	-0.0592	0.0182	-0.0073	-0.0462	0.0165	0.9585
40.3656	-15.7523	439.1364	30.6371	-153.9571	-40.8594	508.1662	34.1627	496.9868	-48.1993	184.0184	31.3837	453.4581	-0.0592	0.0182	-0.0073	-0.0462	0.0165	0.9585
40.3771	-23.825	473.5929	39.7846	-165.6046	-53.9553	545.7685	29.5265	444.2076	-42.3886	164.6342	27.8201	405.0818	-0.0592	0.0182	-0.0073	-0.0462	0.0165	0.9585
40.3887	-30.4958	507.7487	47.0762	-177.2671	-64.3476	582.1691	25.2399	389.9704	-36.6852	144.6878	24.2848	355.4781	-0.0592	0.0182	-0.0073	-0.0462	0.0165	0.9585
40.4003	-35.1625	541.9475	52.0527	-189.0993	-71.3544	617.7221	21.3838	335.4692	-31.2723	124.6051	20.8783	305.6894	-0.0592	0.0182	-0.0073	-0.0462	0.0165	0.9585
40.4119	-37.5074	575.2906	55.0703	-200.7552	-75.2686	651.4928	17.875	281.8482	-26.2342	104.8066	17.6777	256.7609	-0.0592	0.0182	-0.0073	-0.0462	0.0165	0.9585
40.4234	-37.4612	606.6463	56.6685	-211.7918	-76.7126	682.2675	14.5491	230.399	-21.5981	85.7717	14.7477	209.8775	-0.0592	0.0182	-0.0073	-0.0462	0.0165	0.9585
40.435	-35.3121	635.397	57.6097	-221.9179	-76.6515	709.5073	11.2985	182.5618	-17.4304	68.0326	12.1824	166.3478	-0.0592	0.0182	-0.0073	-0.0462	0.0165	0.9585
40.4466	-31.4402	661.2701	58.4816	-230.9877	-75.9007	733.0745	8.1292	139.6908	-13.7846	52.1002	10.0192	127.3911	-0.0592	0.0182	-0.0073	-0.0462	0.0165	0.9585
40.4581	-26.4612	684.1701	59.6766	-238.9243	-75.1229	753.0398	5.2157	102.8865	-10.7073	38.3861	8.2427	93.9962	-0.0592	0.0182	-0.0073	-0.0462	0.0165	0.9585
40.4697	-20.982	703.8592	61.4075	-245.6348	-74.7639	769.2823	2.7751	72.5888	-8.1529	27.0719	6.7415	66.5234	-0.0592	0.0182	-0.0073	-0.0462	0.0165	0.9585
40.4813	-15.5329	720.2538	63.4811	-251.1004	-74.8117	781.8658	0.95282	48.6667	-6.0479	18.1238	5.416	44.8327	-0.0592	0.0182	-0.0073	-0.0462	0.0165	0.9585
40.4929	-10.4464	733.4361	65.6411	-255.3779	-75.0948	790.9853	-0.26613	30.5762	-4.3011	11.3514	4.2045	28.4164	-0.0592	0.0182	-0.0073	-0.0462	0.0165	0.9585
40.5044	-5.9187	743.6582	67.417	-258.5906	-75.1769	797.0239	-0.99298	17.5504	-2.8655	6.4755	3.1106	16.5922	-0.0592	0.0182	-0.0073	-0.0462	0.0165	0.9585
40.516	-2.001	751.0968	68.6203	-260.8201	-74.8597	800.241	-1.3164	8.755	-1.7197	3.1867	2.1522	8.6193	-0.0592	0.0182	-0.0073	-0.0462	0.0165	0.9585
40.5276	1.1751	755.7049	69.1833	-262.058	-74.0988	800.6761	-1.3564	3.3449	-0.86464	1.1676	1.3693	3.7396	-0.0592	0.0182	-0.0073	-0.0462	0.0165	0.9585
40.5391	3.5891	757.4032	69.3338	-262.2593	-73.1284	798.3195	-1.2174	0.49283	-0.28402	0.1081	0.78526	1.1855	-0.0592	0.0182	-0.0073	-0.0462	0.0165	0.9585
40.5507	5.228	756.3602	69.3138	-261.4589	-72.2024	793.4211	-1.0134	-0.60001	0.060585	-0.29014	0.3993	0.22491	-0.0592	0.0182	-0.0073	-0.0462	0.0165	0.9585
40.5623	6.171	753.1323	69.3233	-259.8326	-71.5127	786.567	-0.79557	-0.60972	0.23272	-0.27926	0.16937	0.23039	-0.0592	0.0182	-0.0073	-0.0462	0.0165	0.9585
40.5739	6.4974	748.6569	69.4587	-257.6978	-71.141	778.7471	-0.61123	-0.049373	0.28288	-0.05215	0.057373	0.73239	-0.0592	0.0182	-0.0073	-0.0462	0.0165	0.9585
40.5854	6.329	744.0351	69.6671	-255.4481	-71.0018	771.0599	-0.45816	0.7207	0.25307	0.25751	0.023583	1.3991	-0.0592	0.0182	-0.0073	-0.0462	0.0165	0.9585
40.597	5.7476	740.3744	69.9101	-253.4801	-71.0256	764.6101	-0.35061	1.4889	0.17295	0.56842	0.043488	2.0495	-0.0592	0.0182	-0.0073	-0.0462	0.0165	0.9585
40.6086	4.9119	738.4488	70.1117	-252.0829	-71.0863	760.1082	-0.277	2.1455	0.071138	0.83762	0.088532	2.5949	-0.0592	0.0182	-0.0073	-0.0462	0.0165	0.9585
40.6201	3.9059	738.6259	70.2892	-251.3995	-71.1654	757.8568	-0.24025	2.661	-0.031882	1.0512	0.14579	3.026	-0.0592	0.0182	-0.0073	-0.0462	0.0165	0.9585
40.6317	2.8695	740.8177	70.4146	-251.4188	-71.1906	757.6588	-0.2242	3.0353	-0.11873	1.2084	0.20253	3.3416	-0.0592	0.0182	-0.0073	-0.0462	0.0165	0.9585
40.6433	1.9133	744.6014	70.4923	-252.0066	-71.1309	759.0199	-0.22977	3.3074	-0.18241	1.3211	0.25429	3.5977	-0.0592	0.0182	-0.0073	-0.0462	0.0165	0.9585
40.6549	1.1726	749.2732	70.5088	-252.9379	-70.9276	761.1368	-0.24619	3.5015	-0.21666	1.399	0.28854	3.8145	-0.0592	0.0182	-0.0073	-0.0462	0.0165	0.9585
40.6664	0.74662	754.0118	70.4619	-253.9418	-70.5433	763.1482	-0.27261	3.6746	-0.22436	1.4596	0.30818	4.045	-0.0592	0.0182	-0.0073	-0.0462	0.0165	0.9585
40.678	0.72346	757.9777	70.3337	-254.7392	-69.93	764.1713	-0.30768	3.8323	-0.2122	1.5073	0.31776	4.2784	-0.0592	0.0182	-0.0073	-0.0462	0.0165	0.9585
40.6896	1.0995	760.4642	70.0771	-255.091	-69.0389	763.5053	-0.34925	3.9805	-0.19068	1.5452	0.32532	4.5123	-0.0592	0.0182	-0.0073	-0.0462	0.0165	0.9585
40.7011	1.8765	760.9526	69.667	-254.822	-67.8452	760.6447	-0.39814	4.0796	-0.17704	1.5619	0.34511	4.6823	-0.0592	0.0182	-0.0073	-0.0462	0.0165	0.9585
40.7127	3.0057	759.224	69.069	-253.8533	-66.3332	755.3883	-0.45903	4.0791	-0.17289	1.5394	0.38016	4.7323	-0.0592	0.0182	-0.0073	-0.0462	0.0165	0.9585
40.7243	4.459	755.3235	68.3139	-252.1936	-64.5468	747.7878	-0.52214	3.8916	-0.19273	1.4469	0.44072	4.5602	-0.0592	0.0182	-0.0073	-0.0462	0.0165	0.9585
40.7359	6.2221	749.5924	67.4405	-249.9476	-62.5334	738.1921	-0.592	3.3952	-0.23315	1.2404	0.52559	4.0198	-0.0592	0.0182	-0.0073	-0.0462	0.0165	0.9585
40.7474	8.3012	742.5858	66.5459	-247.2885	-60.3864	727.1233	-0.64535	2.4587	-0.29598	0.87086	0.632	2.9491	-0.0592	0.0182	-0.0073	-0.0462	0.0165	0.9585
40.759	10.7207	735.0206	65.7231	-244.4426	-58.1863	715.2809	-0.67064	0.94231	-0.37816	0.2862	0.745	1.1927	-0.0592	0.0182	-0.0073	-0.0462	0.0165	0.9585
40.7706	13.5498	727.6724	65.0908	-241.6535	-56.0252	703.406	-0.61974	-1.2402	-0.4646	-0.54701	0.83044	-1.3603	-0.0592	0.0182	-0.0073	-0.0462	0.0165	0.9585
40.7821	16.8395	721.2608	64.7533	-239.1474	-53.9815	692.1926	-0.45985	-4.0788	-0.52569	-1.6249	0.83825	-4.7035	-0.0592	0.0182	-0.0073	-0.0462	0.0165	0.9585
40.7937	20.6736	716.4084	64.788	-237.1191	-52.0985	682.2276	-0.11764	-7.3898	-0.51015	-2.8752	0.6806	-8.6339	-0.0592	0.0182	-0.0073	-0.0462	0.0165	0.9585
40.8053	25.1104	713.56	65.2425	-235.7056	-50.4029	673.9536	0.44833	-10.7103	-0.35355	-4.1173	0.25769	-12.6027	-0.0592	0.0182	-0.0073	-0.0462	0.0165	0.9585
40.8169	30.1745	712.8896	66.1129	-234.9624	-48.8877	667.5603	1.3066	-13.1866	0.040043	-5.019	-0.56312	-15.597	-0.0592	0.0182	-0.0073	-0.0462	0.0165	0.9585
40.8284	35.8123	714.2398	67.3536	-234.842	-47.5378	662.9731	2.4768	-13.4443	0.76459	-5.0488	-1.8922	-15.9903	-0.0592	0.0182	-0.0073	-0.0462	0.0165	0.9585
40.84	41.8933	717.0398	68.8351	-235.1735	-46.2902	659.7411	3.9442	-9.5433	1.9176	-3.4544	-3.8184	-11.5086	-0.0592	0.0182	-0.0073	-0.0462	0.0165	0.9585
40.8516	48.2221	720.3488	70.36	-235.6732	-45.04	657.1016	5.5749	1.0653	3.5537	0.74468	-6.3327	0.86883	-0.0592	0.0182	-0.0073	-0.0462	0.0165	0.9585
40.8631	54.5834	722.8667	71.6532	-235.9495	-43.6232	653.9788	7.0919	21.3253	5.6526	8.6793	-9.2786	24.6279	-0.0592	0.0182	-0.0073	-0.0462	0.0165	0.9585
40.8747	60.6827	723.0167	72.4207	-235.5208	-41.8849	649.07	8.0035	54.2213	8.0485	21.4814	-12.2403	63.3139	-0.0592	0.0182	-0.0073	-0.0462	0.0165	0.9585
40.8863	66.1986	719.0004	72.3738	-233.834	-39.6865	640.879	7.5558	101.9614	10.3556	39.9742	-14.4446	119.5574	-0.0592	0.0182	-0.0073	-0.0462	0.0165	0.9585
40.8979	70.7669	708.8969	71.2562	-230.2933	-36.933	627.8257	4.6777	164.8358	11.8793	64.2188	-14.6414	193.7563	-0.0592	0.0182	-0.0073	-0.0462	0.0165	0.9585
40.9094	74.0307	690.7695	68.8595	-224.2922	-33.5737	608.3043	-2.0588	239.7886	11.6359	92.9711	-11.1551	282.3478	-0.0592	0.0182	-0.0073	-0.0462	0.0165	0.9585
40.921	75.6138	662.9148	65.0359	-215.2848	-29.6155	580.9196	-13.3705	319.5872	8.5879	123.375	-2.5657	376.8138	-0.0592	0.0182	-0.0073	-0.0462	0.0165	0.9585
